<svg width="1024" height="280" viewBox="0 0 1024 280" fill="none" xmlns="http://www.w3.org/2000/svg">
<g clip-path="url(#clip0_7421_103410)">
<path d="M685.47 17.556C697.09 17.6235 708.71 17.5933 720.33 17.4653C720.61 25.1033 720.3 34.8824 720.295 42.7358L720.29 95.6349L720.295 260.447C709.115 259.86 697.595 260.413 686.32 260.141C684.74 258.615 686.725 257.109 684.815 254.645C680.205 252.468 667.875 259.93 662.045 260.896C656.12 261.878 655.18 262.028 648.895 261.491C635.195 258.894 625.72 251.772 620.12 239.019C618.45 235.243 617.255 231.272 616.57 227.2C612.485 203.267 611.71 125.131 620.22 103.404C623.815 94.2249 630.525 87.2354 639.54 83.3084C654.995 76.5739 668.465 82.9894 682.925 88.6579C686.775 77.0644 685.5 32.2874 685.47 17.556ZM669.43 231.809C674.815 230.104 680.145 226.814 682.835 221.65C684.57 218.313 685.085 214.052 685.435 210.334C686.86 195.064 686.43 133.379 682.465 121.107C681.13 116.974 678.595 113.811 674.69 111.829C671.455 110.186 668.325 109.731 664.745 110.078C659.6 111.87 655.76 114.981 653.38 119.962C645.93 135.566 646.355 202.644 652.225 218.92C654.045 223.964 656.755 228.127 661.74 230.495C664.305 231.714 666.62 231.957 669.43 231.809Z" fill="white"/>
<path d="M319.786 17.5476C331.301 17.6197 342.816 17.593 354.33 17.4675C355.2 49.6848 353.181 84.516 354.434 116.641C371.436 116.758 388.438 116.732 405.44 116.562C405.117 106.743 405.4 95.085 405.401 85.1255L405.304 17.5405L439.997 17.5829C439.345 45.8755 439.863 76.266 439.861 104.724L439.918 260.361C436.712 260.137 432.54 260.217 429.256 260.202C421.678 260.174 412.865 259.963 405.417 260.428C405.093 248.068 405.383 234.281 405.383 221.825L405.446 151.069C388.429 150.87 371.156 151.029 354.12 151.045C354.596 163.035 354.301 176.767 354.295 188.904L354.38 260.476C347.186 259.915 326.933 259.905 319.641 260.421C320.156 250.538 319.859 238.067 319.86 228.04L319.867 171.7L319.786 17.5476Z" fill="white"/>
<path d="M527.14 79.713C538.58 78.0405 560.72 87.1725 568.84 95.225C576.76 103.083 578.35 120.182 578.92 130.949C579.785 147.352 579.99 164.057 579.995 180.477V260.442C573.105 259.822 552.47 259.972 545.48 260.43L545.47 250.704C538.46 252.727 533.505 257.336 526.89 259.717C503.155 268.259 486.058 255.527 477.894 234.268C472.249 218.583 471.877 193.66 481.415 179.139C496.435 156.273 520.19 159.657 543.785 155.342C544.52 140.476 550.65 108.438 527.335 109.944C515.825 109.621 514.97 119.37 509.265 126.08C504.325 131.896 484.02 130.322 476.188 130.368C477.673 116.994 479.799 106.782 488.916 96.4565C499.595 84.362 511.45 80.7745 527.14 79.713ZM515.81 229.647C524.245 232.475 542.455 234.155 544.555 222.141C546.565 210.634 545.52 195.833 545.425 183.916C544.35 183.946 540.51 183.988 539.68 184.183C530.905 185.497 517.435 186.745 511.81 194.309C505.315 203.045 505.38 223.904 515.81 229.647Z" fill="white"/>
<path d="M874.755 79.684C886.855 76.694 907.97 85.169 916.455 94.1375C938.06 116.97 934.66 151.571 934.565 180.486C910.46 179.942 884.255 180.411 860.04 180.458C859.98 196.105 857.4 232.068 881.77 230.98C895.29 230.377 894.945 212.828 904.3 209.159C908.33 207.58 924.94 207.412 929.32 209.456C931.115 210.576 930.97 211.131 931.49 212.875C934.005 234.989 911.375 259.477 889.605 261.37C877.5 262.422 860.44 262.427 850.595 254.447C835.9 242.565 827.99 224.654 826.465 205.929C824.135 177.403 823.435 145.609 829.78 117.638C834.92 94.9665 852.27 82.371 874.755 79.684ZM859.03 149.632L882.25 149.681C888.395 149.655 894.985 149.735 901.085 149.538C900.02 137.324 894.94 105.124 878.025 106.094C864.045 112.872 861.015 135.822 859.03 149.632Z" fill="white"/>
<path d="M757.58 89.2561C768.715 89.6181 780.815 89.3291 792.065 89.4266C791.6 130.411 791.985 172.19 791.985 213.241L791.99 244.399C791.995 247.909 792.29 256.934 791.78 259.962L790.99 260.424C782.975 259.878 765.53 260.077 757.465 260.474V147.286C757.46 129.528 756.745 106.595 757.58 89.2561Z" fill="white"/>
<path d="M757.39 17.54L792.05 17.5433L792.01 55.48C782.36 54.9265 767.215 55.187 757.48 55.4685L757.39 17.54Z" fill="white"/>
<path d="M84.4145 0H89.516C101.31 5.21575 98.541 14.9195 98.5175 26.044C129.936 13.9977 159.664 14.5428 191.094 25.9545C190.953 15.7073 188.57 4.745 199.643 0H205.089C209.23 2.11684 211.108 3.54959 213.357 7.7364C213.773 17.4436 213.571 27.9508 213.546 37.7253C242.281 57.7885 260.688 83.788 267.59 118.751C268.482 123.273 268.944 127.854 269.686 132.363C275.381 132.402 282.386 131.667 286.542 135.83C288.688 137.949 289.881 140.85 289.845 143.867C289.779 146.632 288.599 149.253 286.573 151.135C282.012 155.456 275.114 154.812 269.242 154.734C264.967 188.906 249.557 218.603 222.111 239.953C219.311 242.126 216.457 244.229 213.552 246.259C213.656 258.561 217.26 273.506 205.511 280H199.055C189.32 274.233 191.019 268.083 191.044 257.948C161.001 270.606 128.703 268.557 98.525 257.928C98.554 268.111 100.292 274.51 90.2215 280H84.0335C72.385 273.853 75.935 258.062 75.943 246.132C74.961 245.439 73.9855 244.737 73.016 244.026C40.937 220.661 26.3053 193.456 20.2374 154.874C10.2653 154.31 5.43495 156.553 0 146.661V140.684C4.71815 131.007 10.8297 132.377 20.202 132.348C20.5641 127.934 21.127 123.538 21.8887 119.174C28.1075 84.8245 47.6498 57.291 76.059 37.6048C76.01 34.202 75.73 30.3059 75.9125 26.9551C76.5135 15.9068 72.401 5.7439 84.4145 0ZM98.3865 50.5275C98.5175 77.743 98.1415 105.288 98.468 132.43C101.642 132.44 104.982 132.394 108.14 132.465C111.685 121.981 115.251 109.871 119.958 99.9415C124.01 91.3935 136.654 92.5725 139.867 101.228C141.68 105.453 142.823 110.501 144.074 115.124C147.172 125.673 150.327 137.767 153.684 148.061C157.516 137.658 159.344 131.864 171.76 132.299C177.878 132.514 184.944 132.506 191.061 132.389L191.106 78.834C191.106 70.5355 190.747 58.8145 191.208 50.734C177.299 43.7176 163.094 39.8837 147.465 39.5715C146.119 39.5446 140.447 39.4833 139.286 39.7176C123.223 40.726 112.885 44.0092 98.3865 50.5275ZM98.464 154.945L98.412 233.473C126.628 245.517 152.889 249.019 182.286 237.173C184.986 236.057 187.67 234.905 190.339 233.716C191.871 232.013 190.799 162.608 191.208 155.033C185.483 154.761 180.633 154.759 174.932 154.835C173.827 157.95 171.606 164.197 170.415 166.633C166.441 174.758 161.666 198.008 148.324 193.24C137.968 189.54 134.285 156.685 129.96 146.926C129.438 145.748 129.21 143.527 128.276 142.835C122.948 159.181 112.716 154.176 98.464 154.945ZM213.527 154.505L213.602 218.208C220.099 211.269 225.342 205.881 230.551 197.827C239.16 184.414 244.514 170.666 246.395 154.737C240.521 154.774 217.948 155.514 213.527 154.505ZM43.1567 132.442C52.9175 132.43 66.3065 132.77 75.916 132.306C75.959 125.657 76.4245 67.885 75.3355 66.422C56.958 85.799 45.8645 104.078 42.8168 131.251C42.7661 131.704 42.9132 132.086 43.1567 132.442ZM42.8714 154.615C48.013 181.019 55.239 197.9 75.0665 217.029L75.867 217.203L75.9355 216.125L75.9495 154.686C68.906 154.848 61.6395 154.623 54.567 154.725C52.757 154.752 44.2373 154.889 42.8714 154.615ZM213.599 66.2105L213.556 132.429L247.113 132.411C243.56 111.022 237.752 93.0215 223.353 76.1665C220.935 73.3365 216.562 68.243 213.599 66.2105Z" fill="white"/>
<path d="M965.91 17.5513C977.475 17.6134 989.035 17.5905 1000.6 17.4827C1000.56 41.3771 998.21 208.069 1005.73 220.561C1008.9 225.828 1015.84 227.604 1021.41 229.037C1023.06 232.024 1023.23 232.875 1024 236.198V260.127C1007.74 257.611 991.795 258.625 979.125 245.854C970.905 237.569 969.175 230.186 968.23 218.888C966.92 203.23 966.84 187.692 966.4 172.007C965.73 120.537 965.97 69.0281 965.91 17.5513Z" fill="white"/>
</g>
<defs>
<clipPath id="clip0_7421_103410">
<rect width="1024" height="280" fill="white"/>
</clipPath>
</defs>
</svg>
